<?xml version="1.0" standalone="no"?>
<!DOCTYPE svg PUBLIC "-//W3C//DTD SVG 20010904//EN"
 "http://www.w3.org/TR/2001/REC-SVG-20010904/DTD/svg10.dtd">
<svg version="1.0" xmlns="http://www.w3.org/2000/svg"
 width="96.000000pt" height="96.000000pt" viewBox="0 0 96.000000 96.000000"
 preserveAspectRatio="xMidYMid meet">
<metadata>
Created by potrace 1.14, written by Peter Selinger 2001-2017
</metadata>
<g transform="translate(0.000000,96.000000) scale(0.100000,-0.100000)"
fill="#000000" stroke="none">
<path d="M404 901 c-79 -36 -114 -112 -98 -212 6 -36 6 -65 1 -75 -6 -11 -5
-31 3 -58 7 -22 15 -57 17 -76 3 -19 8 -54 12 -76 14 -72 -28 -116 -94 -100
-59 15 -73 92 -35 198 26 72 23 101 -15 147 -14 16 -29 49 -33 73 l-8 43 -7
-34 c-5 -26 -1 -47 19 -89 l26 -55 -41 -86 c-45 -94 -51 -144 -27 -202 15 -36
46 -69 83 -88 27 -14 113 -14 147 -1 33 12 33 1 4 -51 -24 -43 -84 -79 -134
-80 -25 0 -26 -2 -9 -9 81 -35 211 18 245 101 13 30 30 39 30 16 0 -24 63 -90
104 -108 41 -18 146 -26 146 -11 0 4 -20 14 -45 21 -41 12 -105 67 -105 91 0
4 -3 15 -6 23 -5 14 0 14 38 3 45 -13 68 -13 110 -3 34 9 80 46 72 59 -4 7 -2
8 4 4 7 -4 18 7 28 26 27 52 15 141 -30 221 -21 37 -37 69 -37 72 1 3 12 27
26 54 26 49 27 79 6 133 -7 17 -8 11 -4 -25 5 -42 2 -53 -25 -91 -44 -61 -47
-83 -19 -162 31 -89 29 -140 -7 -171 -34 -29 -65 -29 -101 -1 -26 20 -27 25
-21 77 6 54 18 116 31 173 4 14 3 33 -2 42 -5 10 -5 40 1 75 16 100 -19 176
-98 212 -23 10 -57 19 -76 19 -19 0 -53 -9 -76 -19z"/>
<path d="M165 789 c-4 -6 -5 -12 -2 -15 2 -3 7 2 10 11 7 17 1 20 -8 4z"/>
</g>
</svg>
