<svg xmlns="http://www.w3.org/2000/svg" xmlns:xlink="http://www.w3.org/1999/xlink">
  <svg id="plus" xmlns="http://www.w3.org/2000/svg" viewBox="0 0 448 512">
    <path d="M432 256c0 17.69-14.33 32.01-32 32.01H256v144c0 17.69-14.33 31.99-32 31.99s-32-14.3-32-31.99v-144H48c-17.67 0-32-14.32-32-32.01s14.33-31.99 32-31.99H192v-144c0-17.69 14.33-32.01 32-32.01s32 14.32 32 32.01v144h144C417.7 224 432 238.3 432 256z" />
  </svg>
  <svg id="calendar-days" xmlns="http://www.w3.org/2000/svg" viewBox="0 0 448 512">
    <path d="M152 64H296V24C296 10.75 306.7 0 320 0C333.3 0 344 10.75 344 24V64H384C419.3 64 448 92.65 448 128V448C448 483.3 419.3 512 384 512H64C28.65 512 0 483.3 0 448V128C0 92.65 28.65 64 64 64H104V24C104 10.75 114.7 0 128 0C141.3 0 152 10.75 152 24V64zM48 248H128V192H48V248zM48 296V360H128V296H48zM176 296V360H272V296H176zM320 296V360H400V296H320zM400 192H320V248H400V192zM400 408H320V464H384C392.8 464 400 456.8 400 448V408zM272 408H176V464H272V408zM128 408H48V448C48 456.8 55.16 464 64 464H128V408zM272 192H176V248H272V192z" />
  </svg>
  <svg id="calendar-plus" xmlns="http://www.w3.org/2000/svg" viewBox="0 0 448 512">
    <path d="M216.1 408.1C207.6 418.3 192.4 418.3 183 408.1L119 344.1C109.7 335.6 109.7 320.4 119 311C128.4 301.7 143.6 301.7 152.1 311L200 358.1L295 263C304.4 253.7 319.6 253.7 328.1 263C338.3 272.4 338.3 287.6 328.1 296.1L216.1 408.1zM128 0C141.3 0 152 10.75 152 24V64H296V24C296 10.75 306.7 0 320 0C333.3 0 344 10.75 344 24V64H384C419.3 64 448 92.65 448 128V448C448 483.3 419.3 512 384 512H64C28.65 512 0 483.3 0 448V128C0 92.65 28.65 64 64 64H104V24C104 10.75 114.7 0 128 0zM400 192H48V448C48 456.8 55.16 464 64 464H384C392.8 464 400 456.8 400 448V192z" />
  </svg>
  <svg id="calendar" xmlns="http://www.w3.org/2000/svg" viewBox="0 0 448 512">
    <path d="M152 64H296V24C296 10.75 306.7 0 320 0C333.3 0 344 10.75 344 24V64H384C419.3 64 448 92.65 448 128V448C448 483.3 419.3 512 384 512H64C28.65 512 0 483.3 0 448V128C0 92.65 28.65 64 64 64H104V24C104 10.75 114.7 0 128 0C141.3 0 152 10.75 152 24V64zM48 448C48 456.8 55.16 464 64 464H384C392.8 464 400 456.8 400 448V192H48V448z" />
  </svg>
  <svg id="inbox" xmlns="http://www.w3.org/2000/svg" viewBox="0 0 512 512">
    <path d="M447 56.25C443.5 42 430.7 31.1 416 31.1H96c-14.69 0-27.47 10-31.03 24.25L3.715 304.9C1.247 314.9 0 325.2 0 335.5v96.47c0 26.51 21.49 48 48 48h416c26.51 0 48-21.49 48-48v-96.47c0-10.32-1.247-20.6-3.715-30.61L447 56.25zM352 352H160L128 288H72.97L121 96h270l48.03 192H384L352 352z" />
  </svg>
  <svg id="circle" xmlns="http://www.w3.org/2000/svg" viewBox="0 0 512 512">
    <path d="M512 256C512 397.4 397.4 512 256 512C114.6 512 0 397.4 0 256C0 114.6 114.6 0 256 0C397.4 0 512 114.6 512 256z" />
  </svg>
  <svg id="pen" xmlns="http://www.w3.org/2000/svg" viewBox="0 0 512 512">
    <path d="M362.7 19.32C387.7-5.678 428.3-5.678 453.3 19.32L492.7 58.75C517.7 83.74 517.7 124.3 492.7 149.3L444.3 197.7L314.3 67.72L362.7 19.32zM421.7 220.3L188.5 453.4C178.1 463.8 165.2 471.5 151.1 475.6L30.77 511C22.35 513.5 13.24 511.2 7.03 504.1C.8198 498.8-1.502 489.7 .976 481.2L36.37 360.9C40.53 346.8 48.16 333.9 58.57 323.5L291.7 90.34L421.7 220.3z" />
  </svg>
  <svg id="trash" xmlns="http://www.w3.org/2000/svg" viewBox="0 0 448 512">
    <path d="M135.2 17.69C140.6 6.848 151.7 0 163.8 0H284.2C296.3 0 307.4 6.848 312.8 17.69L320 32H416C433.7 32 448 46.33 448 64C448 81.67 433.7 96 416 96H32C14.33 96 0 81.67 0 64C0 46.33 14.33 32 32 32H128L135.2 17.69zM394.8 466.1C393.2 492.3 372.3 512 346.9 512H101.1C75.75 512 54.77 492.3 53.19 466.1L31.1 128H416L394.8 466.1z" />
  </svg>
  <svg id="home" xmlns="http://www.w3.org/2000/svg" viewBox="0 0 576 512">
    <path d="M575.8 255.5C575.8 273.5 560.8 287.6 543.8 287.6H511.8L512.5 447.7C512.5 450.5 512.3 453.1 512 455.8V472C512 494.1 494.1 512 472 512H456C454.9 512 453.8 511.1 452.7 511.9C451.3 511.1 449.9 512 448.5 512H392C369.9 512 352 494.1 352 472V384C352 366.3 337.7 352 320 352H256C238.3 352 224 366.3 224 384V472C224 494.1 206.1 512 184 512H128.1C126.6 512 125.1 511.9 123.6 511.8C122.4 511.9 121.2 512 120 512H104C81.91 512 64 494.1 64 472V360C64 359.1 64.03 358.1 64.09 357.2V287.6H32.05C14.02 287.6 0 273.5 0 255.5C0 246.5 3.004 238.5 10.01 231.5L266.4 8.016C273.4 1.002 281.4 0 288.4 0C295.4 0 303.4 2.004 309.5 7.014L564.8 231.5C572.8 238.5 576.9 246.5 575.8 255.5L575.8 255.5z" />
  </svg>
  <svg id="bar" xmlns="http://www.w3.org/2000/svg" viewBox="0 0 448 512">
    <path d="M0 96C0 78.33 14.33 64 32 64H416C433.7 64 448 78.33 448 96C448 113.7 433.7 128 416 128H32C14.33 128 0 113.7 0 96zM0 256C0 238.3 14.33 224 32 224H416C433.7 224 448 238.3 448 256C448 273.7 433.7 288 416 288H32C14.33 288 0 273.7 0 256zM416 448H32C14.33 448 0 433.7 0 416C0 398.3 14.33 384 32 384H416C433.7 384 448 398.3 448 416C448 433.7 433.7 448 416 448z" />
  </svg>
  <svg id="ellipsis-vertical" xmlns="http://www.w3.org/2000/svg" viewBox="0 0 128 512">
    <path d="M64 360C94.93 360 120 385.1 120 416C120 446.9 94.93 472 64 472C33.07 472 8 446.9 8 416C8 385.1 33.07 360 64 360zM64 200C94.93 200 120 225.1 120 256C120 286.9 94.93 312 64 312C33.07 312 8 286.9 8 256C8 225.1 33.07 200 64 200zM64 152C33.07 152 8 126.9 8 96C8 65.07 33.07 40 64 40C94.93 40 120 65.07 120 96C120 126.9 94.93 152 64 152z" />
  </svg>
  <svg id="section" xmlns="http://www.w3.org/2000/svg" viewBox="0 0 256 512">
    <path d="M224.5 337.4c15.66-14.28 26.09-33.12 29.8-55.82c14.46-88.44-64.67-112.4-117-128.2L124.7 149.5C65.67 131.2 61.11 119.4 64.83 96.79c1.531-9.344 5.715-16.19 13.21-21.56c14.74-10.56 39.94-13.87 69.23-9.029c10.74 1.75 24.36 5.686 41.66 12.03c16.58 6 34.98-2.438 41.04-19.06c6.059-16.59-2.467-34.97-19.05-41.06c-21.39-7.842-38.35-12.62-53.28-15.06c-46.47-7.781-88.1-.5313-116.9 20.19C19.46 38.52 5.965 60.39 1.686 86.48C-5.182 128.6 9.839 156 31.47 174.7C15.87 188.1 5.406 207.8 1.686 230.5C-12.59 317.9 67.36 342.7 105.7 354.6l12.99 3.967c64.71 19.56 76.92 29.09 72.42 56.59c-1.279 7.688-4.84 18.75-21.23 26.16c-15.27 6.906-37.01 8.406-61.4 4.469c-16.74-2.656-37.32-10.5-55.49-17.41l-9.773-3.719c-16.52-6.156-34.95 2.25-41.16 18.75c-6.184 16.56 2.186 34.1 18.74 41.19l9.463 3.594c21.05 8 44.94 17.12 68.02 20.75c12.21 2.031 24.14 3.032 35.54 3.032c23.17 0 44.28-4.157 62.4-12.34c31.95-14.44 52.53-40.75 58.02-74.12C261.1 383.6 246.8 356.3 224.5 337.4zM64.83 240.8c3.303-20.28 21.22-28.1 38.09-31.04c.9258 .2891 15.81 4.852 15.81 4.852c64.71 19.56 76.92 29.09 72.39 56.62c-3.291 20.2-21.12 28.07-37.93 31.04c-5.488-1.746-28.49-8.754-28.49-8.754C65.67 275.2 61.11 263.4 64.83 240.8z" />
  </svg>
</svg>